<svg width="233" height="208" viewBox="0 0 233 208" fill="none" xmlns="http://www.w3.org/2000/svg">
<path d="M228.49 3.16C226.699 1.61549 224.52 0.588831 222.189 0.190595C219.858 -0.207641 217.462 0.037632 215.26 0.899999L12.6 80.21C8.92167 81.6426 5.80808 84.231 3.72776 87.5858C1.64744 90.9406 0.712913 94.8803 1.06481 98.812C1.4167 102.744 3.03598 106.455 5.67898 109.387C8.32198 112.319 11.8457 114.313 15.72 115.07L65 124.74V180C64.9999 183.987 66.1915 187.883 68.4217 191.188C70.6519 194.493 73.819 197.056 77.5164 198.548C81.2138 200.04 85.2727 200.392 89.1721 199.561C93.0714 198.729 96.6331 196.751 99.4 193.88L122.07 170.37L159.35 203C161.951 205.287 165.1 206.86 168.491 207.564C171.882 208.268 175.397 208.08 178.693 207.017C181.99 205.955 184.953 204.055 187.295 201.503C189.636 198.951 191.275 195.835 192.05 192.46L232.67 15.91C233.199 13.6056 233.089 11.2006 232.352 8.95404C231.616 6.70744 230.28 4.70423 228.49 3.16ZM136.41 57.52L74.22 102.09L39.79 95.34L136.41 57.52ZM89 170.06V141.35L104 154.5L89 170.06ZM170.16 180.58L96.28 115.81L202.59 39.63L170.16 180.58Z" fill="black"/>
</svg>
