<svg width="22" height="13" viewBox="0 0 22 13" fill="none" xmlns="http://www.w3.org/2000/svg">
<path d="M20.503 12.381H18.222C17.359 12.381 17.099 11.682 15.552 10.134C14.2 8.831 13.629 8.669 13.287 8.669C12.814 8.669 12.685 8.799 12.685 9.45V11.502C12.685 12.057 12.505 12.382 11.055 12.382C9.64829 12.2875 8.28416 11.8601 7.07497 11.1352C5.86578 10.4102 4.84612 9.40827 4.1 8.212C2.32839 6.00702 1.09571 3.41908 0.5 0.654C0.5 0.312 0.63 0.00200006 1.282 0.00200006H3.562C4.148 0.00200006 4.359 0.263 4.589 0.866C5.696 4.124 7.585 6.958 8.352 6.958C8.646 6.958 8.774 6.828 8.774 6.095V2.739C8.677 1.208 7.864 1.079 7.864 0.525C7.87428 0.378841 7.94114 0.242449 8.05037 0.144793C8.15961 0.0471378 8.30261 -0.00408675 8.449 0.00200006H12.033C12.523 0.00200006 12.685 0.246 12.685 0.832V5.362C12.685 5.851 12.895 6.013 13.043 6.013C13.337 6.013 13.563 5.851 14.102 5.313C15.2574 3.90399 16.2013 2.33417 16.904 0.653C16.9759 0.451153 17.1119 0.278374 17.2912 0.161017C17.4705 0.0436598 17.6832 -0.0118342 17.897 0.00299999H20.178C20.862 0.00299999 21.007 0.345 20.862 0.833C20.0324 2.69142 19.0058 4.4555 17.8 6.095C17.554 6.47 17.456 6.665 17.8 7.105C18.026 7.447 18.826 8.115 19.363 8.75C20.145 9.53 20.794 10.432 21.285 11.42C21.481 12.056 21.154 12.381 20.503 12.381Z" fill="black"/>
</svg>
